<svg id="Capa_1" enable-background="new 0 0 512 512" height="512" viewBox="0 0 512 512" width="512" xmlns="http://www.w3.org/2000/svg" xmlns:xlink="http://www.w3.org/1999/xlink"><linearGradient id="SVGID_1_" gradientUnits="userSpaceOnUse" x1="256" x2="256" y1="481" y2="31"><stop offset="0" stop-color="#00b59c"/><stop offset="1" stop-color="#9cffac"/></linearGradient><g><g><path d="m301 451h-90c-8.291 0-15 6.709-15 15s6.709 15 15 15h90c8.291 0 15-6.709 15-15s-6.709-15-15-15zm134.077-298.901c-6.811-51.358-50.889-91.099-104.077-91.099-10.21 0-20.303 1.509-30.117 4.482-24.829-22.309-56.397-34.482-89.883-34.482-69.756 0-127.324 53.188-134.297 121.128-42.847 6.87-76.703 44.106-76.703 88.872 0 49.629 41.371 90 91 90h105v75c0 8.291 6.709 15 15 15h90c8.291 0 15-6.709 15-15v-75h105c49.629 0 91-40.371 91-90 0-44.839-33.959-82.119-76.923-88.901zm-134.077 88.901c-8.291 0-15 6.709-15 15v135h-60v-135c0-8.291-6.709-15-15-15h-15l60-79.995 60 79.995zm120 60h-105v-30h30c5.684 0 10.869-3.208 13.418-8.291 2.534-5.083 1.992-11.162-1.421-15.703l-90-120c-5.654-7.559-18.34-7.559-23.994 0l-90 120c-3.413 4.541-3.955 10.62-1.421 15.703 2.549 5.083 7.734 8.291 13.418 8.291h30v30h-105c-33.091 0-61-26.909-61-60s27.909-60 61-60c8.291 0 15-6.709 15-15 0-57.891 47.109-105 105-105 28.55 0 55.313 11.411 75.366 32.139 4.263 4.395 10.796 5.757 16.436 3.457 9.126-3.706 18.603-5.596 28.198-5.596 41.353 0 75 33.647 75 75 0 8.291 6.709 15 15 15 33.091 0 61 26.909 61 60s-27.909 60-61 60z" fill="url(#SVGID_1_)"/></g></g></svg>